<?xml version="1.0" standalone="no"?>
<!DOCTYPE svg PUBLIC "-//W3C//DTD SVG 20010904//EN"
 "http://www.w3.org/TR/2001/REC-SVG-20010904/DTD/svg10.dtd">
<svg version="1.0" xmlns="http://www.w3.org/2000/svg"
 width="512.000000pt" height="512.000000pt" viewBox="0 0 512.000000 512.000000"
 preserveAspectRatio="xMidYMid meet">

<g transform="translate(0.000000,512.000000) scale(0.100000,-0.100000)"
fill="#000000" stroke="none">
<path d="M530 5099 c-55 -25 -95 -62 -123 -114 l-22 -40 0 -2385 0 -2385 22
-40 c28 -52 68 -89 123 -114 45 -20 55 -21 2026 -21 2213 0 2036 -6 2114 72
76 76 70 -130 70 2488 0 2618 6 2412 -70 2488 -78 78 99 72 -2114 72 -1971 0
-1981 -1 -2026 -21z m3527 -109 c68 -41 63 122 61 -1987 l-3 -1908 -405 -5
c-454 -6 -445 -4 -514 -80 -62 -69 -66 -98 -66 -522 l0 -378 -485 0 -485 0 0
2450 0 2450 933 0 c907 0 933 -1 964 -20z m273 5 c65 -33 60 161 60 -2437 0
-2319 0 -2364 -19 -2392 -37 -56 -26 -55 -556 -56 l-489 0 431 432 c373 375
433 440 449 483 18 48 19 109 19 1975 0 1812 -1 1927 -17 1964 -10 21 -18 40
-18 42 0 11 115 2 140 -11z m246 -10 c57 -37 54 116 54 -2425 0 -2541 3 -2388
-54 -2425 -14 -9 -43 -19 -66 -22 l-40 -6 15 36 c13 32 15 321 15 2417 0 2096
-2 2385 -15 2417 l-15 36 40 -6 c23 -3 52 -13 66 -22z m-2845 -234 l24 -19 3
-491 c1 -270 0 -491 -4 -491 -3 0 -15 11 -26 25 -31 39 -129 111 -201 146
l-66 33 35 35 c20 20 48 59 62 86 24 44 27 61 27 150 0 118 -20 171 -95 245
-65 66 -127 93 -225 98 -99 5 -170 -19 -240 -80 -61 -54 -92 -104 -111 -180
-29 -111 2 -229 81 -317 l37 -41 -46 -20 c-65 -27 -131 -74 -193 -134 l-53
-50 0 487 0 488 25 24 24 25 459 0 c438 0 461 -1 483 -19z m20 -2609 c26 -23
31 -36 36 -91 6 -64 6 -64 -18 -58 -13 4 -126 7 -251 7 l-228 0 0 41 c0 50 24
103 53 117 13 6 96 11 199 11 l178 1 31 -28z m-1 -271 c13 -25 13 -167 0 -192
-10 -18 -26 -19 -498 -19 -366 0 -491 3 -500 12 -13 13 -17 173 -6 202 5 14
59 16 500 16 477 0 494 -1 504 -19z m40 -411 l0 -100 -26 10 c-14 6 -126 10
-250 10 l-224 0 0 85 0 85 238 3 c130 1 243 3 250 5 9 1 12 -23 12 -98z m-40
-216 c6 -14 10 -59 10 -100 0 -125 44 -115 -521 -112 -413 3 -481 5 -489 18
-14 22 -12 194 2 208 9 9 134 12 500 12 l488 0 10 -26z m2290 -257 c0 -1 -180
-182 -400 -402 l-400 -400 0 351 c0 492 -38 454 458 454 188 0 342 -1 342 -3z
m-2250 -148 c0 -100 0 -100 -22 -92 -13 4 -87 8 -165 8 -127 0 -144 -2 -169
-21 -61 -45 -69 -66 -72 -194 -2 -77 0 -126 8 -140 15 -28 9 -34 -23 -19 -53
24 -58 52 -55 309 l3 235 240 5 c132 3 243 7 248 8 4 1 7 -43 7 -99z m-776
-205 c12 -12 16 -36 16 -100 0 -127 3 -124 -143 -124 -82 0 -127 4 -135 12
-16 16 -16 200 0 216 8 8 51 12 129 12 94 0 121 -3 133 -16z m730 0 c12 -12
16 -37 16 -104 0 -120 0 -120 -149 -120 -78 0 -121 4 -129 12 -8 8 -12 47 -12
108 0 61 4 100 12 108 8 8 51 12 129 12 94 0 121 -3 133 -16z"/>
<path d="M2693 4781 c-97 -25 -187 -102 -229 -195 -48 -106 -35 -240 33 -339
58 -84 167 -138 278 -138 101 0 172 28 241 97 58 58 67 89 36 117 -29 27 -46
21 -103 -36 -82 -80 -177 -99 -274 -53 -60 28 -87 56 -114 116 -54 118 6 266
126 317 42 17 135 17 178 -1 18 -8 54 -33 78 -55 45 -42 82 -52 105 -29 37 37
-26 124 -125 173 -62 30 -167 42 -230 26z"/>
<path d="M3099 4509 c-25 -25 -26 -24 75 -229 74 -152 83 -165 110 -168 16 -2
33 1 38 6 17 17 168 343 168 363 0 10 -11 26 -25 35 -39 25 -63 2 -120 -119
-28 -58 -53 -106 -56 -107 -3 0 -27 46 -54 103 -27 56 -55 110 -63 120 -20 23
-47 22 -73 -4z"/>
<path d="M2463 3780 c-30 -12 -38 -46 -19 -75 l16 -25 659 0 c641 0 658 1 676
20 23 26 13 68 -21 80 -32 13 -1280 12 -1311 0z"/>
<path d="M2450 3510 c-11 -11 -20 -27 -20 -35 0 -8 9 -24 20 -35 20 -20 33
-20 670 -20 637 0 650 0 670 20 11 11 20 27 20 35 0 8 -9 24 -20 35 -20 20
-33 20 -670 20 -637 0 -650 0 -670 -20z"/>
<path d="M2450 3250 c-11 -11 -20 -27 -20 -35 0 -8 9 -24 20 -35 20 -20 33
-20 670 -20 637 0 650 0 670 20 25 25 26 52 2 73 -17 15 -78 17 -670 17 -639
0 -652 0 -672 -20z"/>
<path d="M2444 2985 c-14 -21 -15 -31 -6 -51 l12 -24 262 2 263 3 9 27 c8 22
6 32 -9 48 -17 19 -30 20 -266 20 l-249 0 -16 -25z"/>
<path d="M3184 2985 c-14 -21 -15 -31 -6 -50 11 -24 15 -25 110 -25 104 0 122
7 122 46 0 43 -24 54 -120 54 -85 0 -90 -1 -106 -25z"/>
<path d="M2450 2440 c-11 -11 -20 -27 -20 -35 0 -35 38 -55 103 -55 71 0 107
18 107 54 0 40 -30 56 -103 56 -54 0 -71 -4 -87 -20z"/>
<path d="M2847 2442 c-23 -26 -21 -58 5 -76 20 -14 81 -16 470 -16 435 0 449
1 468 20 25 25 26 52 2 73 -17 15 -64 17 -474 17 -428 0 -456 -1 -471 -18z"/>
<path d="M2446 2084 c-20 -19 -20 -34 0 -62 13 -19 24 -22 89 -22 95 0 124 25
95 81 -9 16 -22 19 -90 19 -58 0 -83 -4 -94 -16z"/>
<path d="M2840 2081 c-14 -27 -13 -47 6 -65 14 -14 70 -16 474 -16 404 0 460
2 474 16 19 18 20 38 6 65 -10 18 -26 19 -480 19 -454 0 -470 -1 -480 -19z"/>
<path d="M2444 1725 c-34 -52 5 -85 99 -85 61 0 97 20 97 54 0 41 -29 56 -108
56 -65 0 -73 -2 -88 -25z"/>
<path d="M2847 1732 c-23 -26 -21 -58 5 -76 20 -14 81 -16 470 -16 435 0 449
1 468 20 25 25 26 52 2 73 -17 15 -64 17 -474 17 -428 0 -456 -1 -471 -18z"/>
<path d="M2438 1365 c-9 -19 -8 -29 6 -50 15 -23 22 -25 91 -25 95 0 124 25
95 81 -9 16 -22 19 -96 19 -80 0 -85 -1 -96 -25z"/>
<path d="M2842 1378 c-17 -17 -15 -54 4 -72 14 -14 70 -16 473 -16 447 0 458
0 476 20 15 16 17 26 9 48 l-9 27 -471 3 c-357 2 -473 -1 -482 -10z"/>
<path d="M2446 844 c-20 -19 -20 -34 0 -62 15 -21 20 -22 209 -22 163 0 196 3
209 16 19 18 20 38 6 65 -10 18 -23 19 -210 19 -167 0 -201 -2 -214 -16z"/>
<path d="M2444 585 c-20 -30 -10 -63 23 -76 32 -12 344 -12 377 1 34 12 44 54
21 80 -17 19 -32 20 -211 20 l-194 0 -16 -25z"/>
<path d="M2450 340 c-11 -11 -20 -27 -20 -35 0 -8 9 -24 20 -35 19 -19 33 -20
208 -20 170 0 191 2 205 18 23 26 21 58 -5 76 -18 13 -56 16 -205 16 -170 0
-184 -1 -203 -20z"/>
</g>
</svg>
